<svg xmlns="http://www.w3.org/2000/svg" width="44" height="44" viewBox="0 0 44 44"><defs><style>.a{fill:#fff;stroke:#707070;opacity:0;}.b{fill:#ae85cf;stroke:#ae85cf;}.c{stroke:none;}.d{fill:none;}</style></defs><g transform="translate(-404 -534)"><g class="a" transform="translate(404 534)"><rect class="c" width="44" height="44"/><rect class="d" x="0.5" y="0.5" width="43" height="43"/></g><path class="b" d="M35,17.5A17.5,17.5,0,1,0,5.68,30.391l-.017.015.568.479c.037.031.077.057.114.087.3.25.614.487.932.717.1.074.206.149.311.221q.51.351,1.045.667c.078.046.156.09.234.135.39.222.788.431,1.2.624l.09.041a17.342,17.342,0,0,0,4.232,1.34l.117.021c.461.08.927.143,1.4.186l.172.013c.47.039.944.064,1.425.064s.947-.025,1.414-.062l.178-.013q.7-.064,1.386-.183l.119-.022a17.342,17.342,0,0,0,4.173-1.308l.146-.066q.589-.277,1.152-.6.14-.079.279-.161c.342-.2.679-.412,1.006-.636.118-.08.233-.165.349-.249.279-.2.554-.409.82-.626.059-.048.123-.089.181-.138l.582-.486-.017-.015A17.455,17.455,0,0,0,35,17.5Zm-33.727,0A16.227,16.227,0,1,1,28.262,29.631a4.769,4.769,0,0,0-.568-.342L22.305,26.6a1.411,1.411,0,0,1-.784-1.268V23.446c.125-.154.256-.328.393-.52a12.968,12.968,0,0,0,1.665-3.26,2.31,2.31,0,0,0,1.327-2.093V15.317a2.315,2.315,0,0,0-.564-1.508v-2.97a5.133,5.133,0,0,0-1.2-3.732C21.97,5.769,20.072,5.091,17.5,5.091s-4.47.678-5.643,2.016a5.133,5.133,0,0,0-1.2,3.732v2.97a2.319,2.319,0,0,0-.564,1.508v2.256a2.315,2.315,0,0,0,.853,1.8,11.957,11.957,0,0,0,1.968,4.066v1.842a1.42,1.42,0,0,1-.739,1.246L7.144,29.265a4.6,4.6,0,0,0-.479.3A16.188,16.188,0,0,1,1.273,17.5ZM27.019,30.629q-.334.242-.679.468c-.106.069-.211.137-.318.2-.3.186-.606.363-.918.528-.069.036-.138.071-.207.106a16.215,16.215,0,0,1-2.22.939L22.6,32.9q-.6.2-1.212.351h0c-.412.1-.83.186-1.25.256l-.034.006c-.4.064-.794.111-1.193.146-.071.006-.141.011-.213.016-.4.03-.792.049-1.191.049s-.806-.02-1.206-.05c-.069-.005-.139-.01-.207-.016-.4-.036-.8-.083-1.2-.148l-.053-.01a16.167,16.167,0,0,1-2.475-.618l-.075-.025q-.6-.2-1.185-.454l-.008,0c-.368-.158-.729-.334-1.085-.519-.046-.024-.094-.047-.139-.072-.325-.174-.643-.361-.957-.557q-.139-.088-.277-.178c-.289-.189-.574-.386-.851-.594l-.085-.066.061-.034,5.032-2.745a2.691,2.691,0,0,0,1.4-2.363V22.982l-.146-.177a10.625,10.625,0,0,1-1.91-3.956l-.058-.252-.217-.141a1.055,1.055,0,0,1-.489-.886V15.315a1.039,1.039,0,0,1,.354-.778l.21-.19V10.8l-.006-.083a3.833,3.833,0,0,1,.888-2.775c.92-1.049,2.5-1.581,4.686-1.581s3.752.528,4.675,1.569a3.9,3.9,0,0,1,.9,2.788l-.006,3.628.21.19a1.04,1.04,0,0,1,.354.778v2.256a1.063,1.063,0,0,1-.752,1l-.316.1-.1.315a11.773,11.773,0,0,1-1.588,3.2c-.167.235-.329.444-.468.6l-.158.18v2.354a2.676,2.676,0,0,0,1.488,2.407l5.388,2.694.1.053C27.158,30.532,27.088,30.58,27.019,30.629Z" transform="translate(408.5 538.5)"/></g></svg>